Coordinates
version=1
nRows=13
nColumns=27
inDegrees=yes

Units are S.I. units (second, meters, Newtons, ...)
If the header above contains a line with 'inDegrees', this indicates whether rotational values are in degrees (yes) or radians (no).

endheader
time	pelvis_rotation	pelvis_tilt	pelvis_list	pelvis_tx	pelvis_ty	pelvis_tz	hip_flexion_r	hip_adduction_r	hip_rotation_r	knee_angle_r	knee_rotation_r	knee_adduction_r	knee_angle_r_beta	ankle_angle_r	subtalar_angle_r	mtp_angle_r	hip_flexion_l	hip_adduction_l	hip_rotation_l	knee_angle_l	knee_rotation_l	knee_adduction_l	knee_angle_l_beta	ankle_angle_l	subtalar_angle_l	mtp_angle_l
      5.38000000	     11.48364054	    -43.50794227	      6.09658585	     -0.06342836	      0.62048047	     -1.15120694	    112.51596495	    -46.65854616	      4.27391636	     81.21082878	      0.00000000	      9.71467298	      1.41739635	      7.03235139	      0.00000000	      0.00000000	    110.10789187	    -28.41972068	     -1.20834819	     74.24310766	      0.00000000	     -9.86715821	      1.29578668	      0.80178020	      0.00000000	      0.00000000
      5.38500000	     10.73951676	    -43.51555081	      6.09558209	     -0.06369245	      0.62279900	     -1.15120462	    112.29961862	    -45.73182088	      4.44228935	     80.72261379	      0.00000000	      9.46790822	      1.40887539	      6.86669639	      0.00000000	      0.00000000	    109.47825040	    -29.13284000	     -1.82709509	     73.82338370	      0.00000000	     -9.75136151	      1.28846111	      0.66867114	      0.00000000	      0.00000000
      5.39000000	     11.51556549	    -43.45409286	      6.17619484	     -0.06302053	      0.62490786	     -1.15168925	    111.59488996	    -46.71536475	      3.56827427	     80.36857311	      0.00000000	      9.71679350	      1.40269622	      6.83001953	      0.00000000	      0.00000000	    109.26590183	    -28.33294506	     -1.74154416	     73.45776195	      0.00000000	     -9.86594348	      1.28207981	      0.63057447	      0.00000000	      0.00000000
      5.39500000	     11.48836207	    -43.42842426	      6.22844017	     -0.06280707	      0.62706416	     -1.15193031	    111.17686324	    -46.68575180	      3.27748258	     79.95435921	      0.00000000	      9.71678123	      1.39546682	      6.71986977	      0.00000000	      0.00000000	    108.83278200	    -28.34592936	     -2.05053441	     73.07301992	      0.00000000	     -9.86586105	      1.27536479	      0.52644866	      0.00000000	      0.00000000
      5.40000000	     11.48625672	    -43.42218784	      6.30439644	     -0.06260077	      0.62917116	     -1.15220202	    110.80815884	    -46.67552487	      3.01123039	     79.54393704	      0.00000000	      9.71701834	      1.38830360	      6.58974801	      0.00000000	      0.00000000	    108.41882487	    -28.33254778	     -2.35825672	     72.69468241	      0.00000000	     -9.86538875	      1.26876156	      0.45293331	      0.00000000	      0.00000000
      5.40500000	     10.76344140	    -43.43765226	      6.29268007	     -0.06272225	      0.63133859	     -1.15222106	    110.62966462	    -45.77400571	      3.22502105	     79.08443591	      0.00000000	      9.47135902	      1.38028379	      6.43290708	      0.00000000	      0.00000000	    107.82062644	    -29.02333241	     -2.96641446	     72.30249949	      0.00000000	     -9.74877525	      1.26191667	      0.32958325	      0.00000000	      0.00000000
      5.41000000	     11.55114244	    -43.31926352	      6.38351899	     -0.06190795	      0.63332908	     -1.15277044	    109.85513445	    -46.77203523	      2.33253367	     78.73571932	      0.00000000	      9.72070610	      1.37419754	      6.39038923	      0.00000000	      0.00000000	    107.56539001	    -28.21695571	     -2.86247315	     71.95582272	      0.00000000	     -9.86498184	      1.25586602	      0.31292185	      0.00000000	      0.00000000
      5.41500000	     11.52702839	    -43.31416321	      6.44872051	     -0.06161381	      0.63531249	     -1.15303124	    109.49752768	    -46.72805413	      2.10063844	     78.34770756	      0.00000000	      9.72133723	      1.36742546	      6.28806035	      0.00000000	      0.00000000	    107.17194859	    -28.23763768	     -3.17232118	     71.60267471	      0.00000000	     -9.86478977	      1.24970243	      0.20968198	      0.00000000	      0.00000000
      5.42000000	     11.54205407	    -43.27086694	      6.50807937	     -0.06125652	      0.63728175	     -1.15333458	    109.07842411	    -46.74263691	      1.82946525	     77.95797736	      0.00000000	      9.72343631	      1.36062338	      6.19293479	      0.00000000	      0.00000000	    106.75406497	    -28.20180809	     -3.44525250	     71.25309767	      0.00000000	     -9.86445833	      1.24360116	      0.13733248	      0.00000000	      0.00000000
      5.42500000	     11.55362204	    -43.20900069	      6.55906973	     -0.06082959	      0.63924109	     -1.15362082	    108.63312187	    -46.76287650	      1.54517986	     77.57349142	      0.00000000	      9.72506068	      1.35391284	      6.07892057	      0.00000000	      0.00000000	    106.31654378	    -28.17468892	     -3.72145902	     70.90376783	      0.00000000	     -9.86458742	      1.23750420	      0.06436119	      0.00000000	      0.00000000
      5.43000000	     11.55060449	    -43.14907032	      6.61039789	     -0.06038977	      0.64113739	     -1.15391228	    108.20749760	    -46.76671573	      1.28707835	     77.19955789	      0.00000000	      9.72641040	      1.34738647	      5.97769115	      0.00000000	      0.00000000	    105.88587890	    -28.16417715	     -4.00280805	     70.57017614	      0.00000000	     -9.86461295	      1.23168193	      0.00179680	      0.00000000	      0.00000000
      5.43500000	     11.51188664	    -43.08353083	      6.63888349	     -0.05992670	      0.64302983	     -1.15416060	    107.76091251	    -46.73520898	      1.01889142	     76.82841303	      0.00000000	      9.72697646	      1.34090877	      5.90331779	      0.00000000	      0.00000000	    105.44983430	    -28.18280717	     -4.27615952	     70.23673283	      0.00000000	     -9.86468505	      1.22586224	     -0.07197863	      0.00000000	      0.00000000
      5.44000000	     10.87076185	    -43.11536766	      6.67341195	     -0.05995385	      0.64493579	     -1.15427255	    107.70173238	    -45.91919229	      1.34614701	     76.40565095	      0.00000000	      9.49057668	      1.33353018	      5.70347886	      0.00000000	      0.00000000	    104.88971547	    -28.77029633	     -4.87330554	     69.88897637	      0.00000000	     -9.74682047	      1.21979275	     -0.16950335	      0.00000000	      0.00000000
